<svg xmlns="http://www.w3.org/2000/svg" viewBox="0 0 463 463"><path d="m312.6 288.5c-1.5-9.2-8.3-16.6-17.3-18.9l-40.3-10.4v-14.1c14.9-10.3 24-27.4 24-45.6v-24c0-26.2-21.3-47.5-47.5-47.5h-16c-26.2 0-47.5 21.3-47.5 47.5v24c0 18.2 9.1 35.3 24 45.6v14.1l-40.3 10.4c-9 2.3-15.8 9.7-17.3 18.9l-3.2 19.1c-1.1 6.8 0.8 13.8 5.2 19.1s11 8.3 17.9 8.3h138.2c6.9 0 13.5-3 17.9-8.3 4.5-5.3 6.4-12.2 5.2-19.1l-3.2-19.1zm-13.5 28.5c-1.6 1.9-3.9 3-6.5 3h-138.2c-2.5 0-4.8-1.1-6.5-3-1.6-1.9-2.3-4.4-1.9-6.9l3.2-19.1c0.6-3.3 3-6 6.3-6.8l45.9-11.8c3.3-0.9 5.6-3.8 5.6-7.3v-24.1c0-2.7-1.4-5.1-3.7-6.5-12.5-7.2-20.3-20.7-20.3-35v-24c0-17.9 14.6-32.5 32.5-32.5h16c17.9 0 32.5 14.6 32.5 32.5v24c0 14.4-7.8 27.8-20.3 35-2.3 1.3-3.7 3.8-3.7 6.5v24.1c0 3.4 2.3 6.4 5.6 7.3l45.9 11.8c3.3 0.8 5.7 3.5 6.3 6.8l3.2 19.1c0.4 2.5-0.3 5-1.9 6.9z"/><path d="m407.5 40h-8.5v-8.5c0-17.4-14.1-31.5-31.5-31.5h-288c-17.4 0-31.5 14.1-31.5 31.5v32.5h-8.5c-4.1 0-7.5 3.4-7.5 7.5s3.4 7.5 7.5 7.5h8.5v25h-8.5c-4.1 0-7.5 3.4-7.5 7.5s3.4 7.5 7.5 7.5h8.5v25h-8.5c-4.1 0-7.5 3.4-7.5 7.5s3.4 7.5 7.5 7.5h8.5v25h-8.5c-4.1 0-7.5 3.4-7.5 7.5s3.4 7.5 7.5 7.5h8.5v25h-8.5c-4.1 0-7.5 3.4-7.5 7.5s3.4 7.5 7.5 7.5h8.5v25h-8.5c-4.1 0-7.5 3.4-7.5 7.5s3.4 7.5 7.5 7.5h8.5v25h-8.5c-4.1 0-7.5 3.4-7.5 7.5s3.4 7.5 7.5 7.5h8.5v25h-8.5c-4.1 0-7.5 3.4-7.5 7.5s3.4 7.5 7.5 7.5h8.5v25h-8.5c-4.1 0-7.5 3.4-7.5 7.5s3.4 7.5 7.5 7.5h8.5v32.5c0 17.4 14.1 31.5 31.5 31.5h288c17.4 0 31.5-14.1 31.5-31.5v-136.5h8.5c13 0 23.5-10.5 23.5-23.5v-208c0-13-10.5-23.5-23.5-23.5zm-8.5 111h17v33h-17v-33zm0-15v-33h17v33h-17zm0 63h17v33h-17v-33zm8.5-144c4.7 0 8.5 3.8 8.5 8.5v24.5h-17v-33h8.5zm-23.5 376.5c0 9.1-7.4 16.5-16.5 16.5h-288c-9.1 0-16.5-7.4-16.5-16.5v-32.5h8.5c4.1 0 7.5-3.4 7.5-7.5s-3.4-7.5-7.5-7.5h-8.5v-25h8.5c4.1 0 7.5-3.4 7.5-7.5s-3.4-7.5-7.5-7.5h-8.5v-25h8.5c4.1 0 7.5-3.4 7.5-7.5s-3.4-7.5-7.5-7.5h-8.5v-25h8.5c4.1 0 7.5-3.4 7.5-7.5s-3.4-7.5-7.5-7.5h-8.5v-25h8.5c4.1 0 7.5-3.4 7.5-7.5s-3.4-7.5-7.5-7.5h-8.5v-25h8.5c4.1 0 7.5-3.4 7.5-7.5s-3.4-7.5-7.5-7.5h-8.5v-25h8.5c4.1 0 7.5-3.4 7.5-7.5s-3.4-7.5-7.5-7.5h-8.5v-25h8.5c4.1 0 7.5-3.4 7.5-7.5s-3.4-7.5-7.5-7.5h-8.5v-25h8.5c4.1 0 7.5-3.4 7.5-7.5s-3.4-7.5-7.5-7.5h-8.5v-32.5c0-9.1 7.4-16.5 16.5-16.5h288c9.1 0 16.5 7.4 16.5 16.5v400zm23.5-151.5h-8.5v-33h17v24.5c0 4.7-3.8 8.5-8.5 8.5z"/></svg>