<svg xmlns="http://www.w3.org/2000/svg" width="32" height="32" viewBox="0 0 32 32"><circle cx="8.7" cy="3.3" r="3.3"/><path d="M10.3 7l-0.8 0.3C9.4 7 9.1 6.8 8.7 6.8c-0.3 0-0.6 0.2-0.8 0.5L7.1 7C7 6.9 6.9 6.9 6.8 7c-0.1 0.1-0.1 0.2-0.1 0.3v1c0 0.1 0 0.2 0.1 0.3 0.1 0.1 0.2 0.1 0.3 0.1 0.3-0.1 0.7-0.2 0.9-0.3C8.2 8.6 8.4 8.7 8.7 8.7c0.3 0 0.5-0.1 0.7-0.3 0.2 0.1 0.6 0.2 0.9 0.3 0.1 0 0.2 0 0.3-0.1 0.1-0.1 0.2-0.2 0.2-0.3V7.3c0-0.1-0.1-0.2-0.2-0.3C10.6 6.9 10.4 6.9 10.3 7z"/><path d="M31.3 3.9V2.8l-15 0v1l1.1 0h0l0 5.8v0c0 0-0.1 0.1-0.1 0.1l-2.6 2.3 -3.3-4L8.7 11.7 5.9 7.9c-1.3 0.9-3.1 3.1-3.6 7.9 0 0 0 0 0 0 0 0.1 0 0.2 0 0.3 0 0 0 0 0 0 0 0 0 0 0 0l-1.6 0.6 1.6 4L3 20.5c-0.5-0.3-0.9-0.8-0.9-1.4 0-0.2 0-0.3 0-0.5 0 0.7 0.6 1.3 1.3 1.3h0c0.7 0 1.4-0.6 1.4-1.4 0-0.7 0-1.3 0-1.9 0-0.9 0.1-1.5 0.3-2.2 0.1-0.2 0.1-0.3 0.2-0.5l2.1-0.8 1.8 4.5 -0.6 0.2 -1.6-3.9 -1.4 0.6c-0.3 1.2-0.3 2.7-0.3 4.4 0 0.1 0.3 0.6 0.3 0.7v10.9c0 0.7 0.6 1.3 1.4 1.3 0.7 0 1.4-0.5 1.4-1.4h0.4c0 0.8 0.7 1.4 1.4 1.4 0.7 0 1.4-0.6 1.4-1.3l0-10.9c0.3-0.5 0.3-1.1 0.3-1.7V13.2l1.5 1.8c0.2 0.3 0.6 0.5 0.9 0.5 0 0 0.1 0 0.1 0 0.3 0 0.6-0.1 0.9-0.3l1.2-1 0.9 0 0 8.3h-1.1v1.1h1.1v8.2l12.8 0 0-8.2h1.1v-1.1h-1.1l0-8.3 0 0 1.1 0 0-1.1 -1.1 0 0 0L30.3 3.9h0L31.3 3.9zM26 26.9h-4.3v-2.2h4.3V26.9zM21.7 18.1v-2.1h4.3v2.1H21.7zM26 8.4h-4.3V6.2h4.3V8.4z"/></svg>