<svg xmlns="http://www.w3.org/2000/svg" viewBox="0 0 490 490"><path d="M407.8 53.2c22.9 21.4 37.3 51.7 37.3 85.4 0 10.6-1.4 21.1-4.2 31.3-1.2 4.2-2.5 8.3-4.1 12.3l-3.1 7L327.9 384.6 219 181.9c-1.6-4.1-2.9-8-4-12-2.8-10.2-4.2-20.7-4.2-31.3 0-33.2 13.9-63.1 36.2-84.4L171 5.2v72.1h-15.3V3.7L0 83V490l155.7-97.1v-78.9h15.3v78.9l149.2 93V411h15.3v73.7L490 391.9V0L407.8 53.2zM171 271.5h-15.3v-54.6h15.3V271.5zM171 174.4h-15.3v-54.6h15.3V174.4z"/><path d="M327.9 96.8c-22.5 0-40.8 18.3-40.8 40.8s18.3 40.8 40.8 40.8c22.5 0 40.8-18.3 40.8-40.8S350.4 96.8 327.9 96.8z"/><path d="M327.9 36.8c-56.2 0-101.8 45.7-101.8 101.8 0 9.2 1.2 18.4 3.7 27.2 1 3.5 2.1 6.9 3.4 10.2l3.2 7.3 91.5 169.1 94.7-176.2c1.3-3.2 2.5-6.8 3.5-10.4 2.5-8.9 3.7-18 3.7-27.2C429.7 82.5 384 36.8 327.9 36.8zM327.9 193.7c-30.9 0-56.1-25.2-56.1-56.1 0-30.9 25.2-56.1 56.1-56.1 30.9 0 56.1 25.2 56.1 56.1C384 168.6 358.8 193.7 327.9 193.7z"/></svg>