<svg xmlns="http://www.w3.org/2000/svg" viewBox="0 0 46.5 46.5"><path d="M45.8 1.7c0-0.5-0.4-0.9-1-1L30 0c-0.3 0-0.6 0.1-0.8 0.3L0.3 29.3c-0.2 0.2-0.3 0.4-0.3 0.7s0.1 0.5 0.3 0.7L15.9 46.3c0.2 0.2 0.5 0.3 0.7 0.3s0.5-0.1 0.7-0.3l29-29c0.2-0.2 0.3-0.5 0.3-0.8L45.8 1.7zM16.6 44.1L2.4 30 30.4 2l13.5 0.6 0.6 13.5L16.6 44.1z"/><path d="M32.1 8.8c-0.8 0.8-1.2 1.8-1.2 2.8s0.4 2.1 1.2 2.8c0.8 0.8 1.8 1.2 2.8 1.2s2.1-0.4 2.8-1.2c0.8-0.8 1.2-1.8 1.2-2.8 0-1.1-0.4-2.1-1.2-2.8C36.3 7.3 33.6 7.3 32.1 8.8zM36.4 13c-0.8 0.8-2.1 0.8-2.8 0-0.4-0.4-0.6-0.9-0.6-1.4s0.2-1 0.6-1.4c0.4-0.4 0.9-0.6 1.4-0.6s1 0.2 1.4 0.6 0.6 0.9 0.6 1.4S36.7 12.6 36.4 13z"/></svg>