<svg xmlns="http://www.w3.org/2000/svg" viewBox="0 0 23.4 23.4"><path d="M14.6 15.2c0.4-0.7 1.1-1.1 1.9-1.1 0.9 0 1.3-0.4 1.3-1.3 0-0.9 0.4-1.5 1.1-1.9 0.7-0.4 0.9-1 0.5-1.8 -0.4-0.7-0.4-1.5 0-2.2 0.4-0.7 0.3-1.3-0.5-1.8 -0.7-0.4-1.1-1.1-1.1-1.9 0-0.9-0.4-1.3-1.3-1.3 -0.9 0-1.5-0.4-1.9-1.1 -0.4-0.7-1-0.9-1.8-0.5 -0.7 0.4-1.5 0.4-2.2 0C9.8-0.2 9.2 0 8.8 0.7 8.4 1.4 7.7 1.8 6.9 1.8c-0.9 0-1.3 0.4-1.3 1.3C5.6 4 5.2 4.6 4.5 5.1 3.7 5.5 3.6 6.1 4 6.8c0.4 0.7 0.4 1.5 0 2.2 -0.4 0.7-0.3 1.3 0.5 1.8 0.7 0.4 1.1 1.1 1.1 1.9 0 0.9 0.4 1.3 1.3 1.3 0.9 0 1.5 0.4 1.9 1.1 0.4 0.7 1 0.9 1.8 0.5 0.7-0.4 1.5-0.4 2.2 0C13.6 16.1 14.1 15.9 14.6 15.2zM11.7 12.6c-2.6 0-4.7-2.1-4.7-4.7 0-2.6 2.1-4.7 4.7-4.7 2.6 0 4.7 2.1 4.7 4.7C16.4 10.5 14.3 12.6 11.7 12.6z"/><path d="M6.8 14.7c-0.9 0-1-0.4-1-0.4l-3.5 6.9 2.8-0.3 1.6 2.3c0 0 3.2-6.8 3.2-6.7C8.2 16.5 8.9 14.8 6.8 14.7z"/><path d="M17.6 14.6c-2.6 0.3-2 0.9-2.6 1.4 -0.7 0.7-1.5 0.6-1.5 0.6l4 6.8 1-2.5 2.8 0.4L17.6 14.6z"/><polygon points="12.7 6.9 11.7 4.9 10.7 6.9 8.5 7.2 10.1 8.8 9.7 11 11.7 9.9 13.7 11 13.3 8.8 14.9 7.2 "/></svg>